<svg width="324" height="256" viewBox="0 0 324 256" fill="none" xmlns="http://www.w3.org/2000/svg">
<rect width="324" height="256" rx="16" fill="#F2F3F5"/>
<path d="M152.681 80.2099L157.821 91.6583C158.336 92.8036 157.68 94.1338 156.458 94.4235L143.705 97.4484C143.386 97.524 143.054 97.5202 142.737 97.4372L135.75 95.6072C135.164 95.4538 134.54 95.5741 134.053 95.9343L130.643 98.4582C130.129 98.8382 129.465 98.95 128.855 98.7591L113.537 93.9618C112.485 93.6322 111.365 94.2166 111.033 95.2681L109.981 98.5967C109.885 98.903 109.716 99.1815 109.488 99.4086L97.5899 111.307C97.1774 111.72 96.9655 112.292 97.01 112.874L97.999 125.821C98.0255 126.168 98.1421 126.502 98.3373 126.79L105.741 137.72C106.167 138.348 106.2 139.163 105.827 139.824L99.4834 151.074C99.1447 151.675 98.5207 152.058 97.8321 152.09L90.8974 152.405C90.4112 152.427 89.9498 152.626 89.5995 152.963L76.5304 165.572C76.1576 165.932 75.6598 166.133 75.1418 166.133H70.0771C69.6088 166.133 69.1553 165.969 68.7957 165.669L55.2515 154.367C54.6474 153.863 54.395 153.051 54.6065 152.294L56.2406 146.438C56.4861 145.558 56.1042 144.623 55.3125 144.167L48.6036 140.302C47.911 139.903 47.0472 139.955 46.4071 140.434L34.2798 149.508C33.8268 149.847 33.5385 150.362 33.4864 150.925L30.9298 178.575C30.8906 178.999 30.7171 179.399 30.4346 179.717L22.0935 189.123C21.7006 189.566 21.5243 190.161 21.6119 190.746L23.1056 200.731C23.2574 201.745 24.1519 202.48 25.1765 202.433L35.5731 201.949C36.0225 201.928 36.4659 202.06 36.8316 202.322L45.5235 208.556C45.9343 208.85 46.2183 209.289 46.3183 209.785L47.3695 214.988C47.6958 216.603 49.7267 217.153 50.8232 215.922L52.463 214.081C52.8425 213.656 53.3858 213.412 53.9563 213.412H63.0078C63.6635 213.412 64.2775 213.733 64.6512 214.272L67.9187 218.983C68.1983 219.386 68.3199 219.878 68.2606 220.365L66.9941 230.764C66.7851 232.48 68.7041 233.635 70.1224 232.647L77.1334 227.764C77.4688 227.531 77.8677 227.406 78.2764 227.406H87.2196C87.5634 227.406 87.9014 227.317 88.201 227.148L93.88 223.95C95.1091 223.257 95.2545 221.544 94.1597 220.655L86.3143 214.281C85.6705 213.757 85.4164 212.891 85.6756 212.103L87.2506 207.315C87.5399 206.436 88.3951 205.87 89.3177 205.947L99.3255 206.787C100.579 206.892 101.509 205.649 101.055 204.477C100.518 203.088 101.897 201.727 103.278 202.283L120.268 209.125C121.125 209.47 122.107 209.183 122.643 208.431L129.327 199.058C129.702 198.531 130.309 198.219 130.955 198.219H133.957C134.922 198.219 135.749 198.908 135.924 199.857L137.82 210.174C137.995 211.123 138.822 211.813 139.787 211.813H146.934C147.315 211.813 147.688 211.921 148.009 212.126L154.981 216.569C156.236 217.368 156.21 219.209 154.933 219.972L150.425 222.668C149.118 223.45 149.129 225.346 150.444 226.113L159.285 231.264C160.381 231.903 161.788 231.373 162.189 230.169L162.225 230.061C162.659 228.76 164.245 228.272 165.336 229.104L166.122 229.704C166.618 230.082 166.909 230.67 166.909 231.294V231.446C166.909 232.108 166.582 232.726 166.035 233.099L165.599 233.397C163.739 234.664 165.066 237.561 167.24 236.982L182.51 232.913C184.627 232.348 184.426 229.28 182.253 228.997L176.806 228.288C175.966 228.178 175.286 227.552 175.109 226.724L174.724 224.927C174.457 223.682 175.406 222.508 176.679 222.508H182.638C184.439 222.508 185.322 220.316 184.025 219.067L172.049 207.537C171.699 207.2 171.484 206.748 171.443 206.265L170.247 192.168C170.166 191.213 169.418 190.449 168.464 190.349L157.013 189.139C156.329 189.067 155.73 188.648 155.427 188.03L148.972 174.846C148.869 174.636 148.804 174.41 148.779 174.178L146.636 154.045C146.562 153.357 146.85 152.68 147.395 152.255L161.711 141.105L163.082 140.037C163.8 139.478 164.764 140.315 164.312 141.105L162.024 145.096C161.82 145.451 161.731 145.861 161.767 146.269L162.969 159.669C162.996 159.976 163.094 160.272 163.255 160.535L169.851 171.311C170.019 171.587 170.119 171.899 170.14 172.221L170.457 176.928L170.736 181.071C170.78 181.731 171.148 182.326 171.719 182.661L174.194 184.114C174.921 184.54 175.837 184.466 176.485 183.927L182.69 178.768C183.304 178.258 184.162 178.162 184.874 178.523L196.56 184.452C197.031 184.691 197.388 185.106 197.554 185.608L200.528 194.61C200.85 195.582 201.853 196.154 202.853 195.936L208.238 194.763C209.638 194.458 210.273 192.824 209.446 191.655L207.458 188.842C207.219 188.504 207.091 188.101 207.091 187.688V182.088C207.091 181.17 207.715 180.37 208.606 180.148L215.546 178.413C216.617 178.145 217.703 178.796 217.971 179.868L221.882 195.511C222.011 196.028 221.928 196.576 221.652 197.033L215.536 207.12C214.922 208.133 215.318 209.455 216.389 209.964L219.051 211.227C219.795 211.58 220.68 211.441 221.279 210.877L224.805 207.558C225.176 207.209 225.666 207.015 226.176 207.015H228.132C229.364 207.015 230.303 208.117 230.106 209.333L229.734 211.642C229.586 212.561 230.092 213.461 230.954 213.812L238.805 217.011C239.666 217.362 240.656 217.072 241.193 216.313L242.279 214.777C243.18 213.502 245.136 213.737 245.71 215.188C246.041 216.025 246.898 216.529 247.79 216.414L256.947 215.225C258.199 215.063 258.989 213.795 258.584 212.6L257.969 210.786C257.631 209.789 258.124 208.7 259.097 208.297L268.723 204.304C269.85 203.836 271.13 204.479 271.429 205.662L273.444 213.654C273.637 214.419 273.362 215.226 272.742 215.714L267.926 219.508C267.445 219.888 267.164 220.467 267.164 221.079V222.407C267.164 223.512 268.059 224.407 269.164 224.407H272.737C273.38 224.407 273.984 224.098 274.36 223.576L278.06 218.441C278.436 217.919 279.04 217.61 279.683 217.61H286.952C287.794 217.61 288.545 217.083 288.832 216.291L290.158 212.629C290.346 212.108 290.743 211.689 291.252 211.471L302.315 206.741C303.593 206.194 303.938 204.543 302.985 203.531L298.912 199.203C298.675 198.951 298.507 198.642 298.425 198.305L296.953 192.262C296.769 191.506 296.162 190.925 295.399 190.773L283.771 188.465C283.31 188.373 282.895 188.122 282.601 187.755L267.686 169.182C267.352 168.766 266.866 168.501 266.335 168.445L247.771 166.495C246.493 166.361 245.671 165.073 246.088 163.858L252.862 144.092C253.307 142.794 252.342 141.444 250.97 141.444H234.662C233.419 141.444 232.477 140.322 232.693 139.097L234.676 127.832C234.743 127.452 234.698 127.061 234.548 126.706L232.28 121.346L225.876 106.218C225.749 105.917 225.697 105.59 225.726 105.265L226.835 92.5105C226.866 92.1541 226.8 91.7959 226.646 91.4733L219.025 75.562C218.424 74.3068 219.257 72.8367 220.642 72.7068L229.091 71.9147C229.974 71.8319 230.697 71.1775 230.867 70.307L231.657 66.2628C231.943 64.8017 233.667 64.1535 234.845 65.0649L237.936 67.4583C238.287 67.7296 238.717 67.8768 239.16 67.8768H243.621C244.58 67.8768 245.404 67.1956 245.585 66.2533L247.262 57.5057C247.442 56.5635 248.266 55.8822 249.226 55.8822H253.769C254.874 55.8822 255.769 54.9868 255.769 53.8822V47.428C255.769 46.3874 254.971 45.5207 253.934 45.4349L240.709 44.3398C240.297 44.3057 239.906 44.1448 239.589 43.8794L216.74 24.7281C216.265 24.3297 215.632 24.1744 215.026 24.3075L189.529 29.9114C188.998 30.0279 188.444 29.9239 187.992 29.6233L168.597 16.7243C167.936 16.2843 167.077 16.2776 166.408 16.7072L155.712 23.5834C155.207 23.908 154.875 24.4424 154.807 25.039L153.408 37.2934C153.297 38.2705 152.492 39.0215 151.509 39.0647L146.543 39.283C145.286 39.3383 144.392 40.5256 144.686 41.7484L150.175 64.5913C150.267 64.974 150.47 65.321 150.758 65.5889L156.135 70.5875C156.867 71.268 156.985 72.3845 156.41 73.2023L152.869 78.2408C152.464 78.818 152.392 79.5663 152.681 80.2099Z" fill="white" stroke="#262E39" stroke-linecap="round" stroke-linejoin="round"/>
<path d="M158.812 93.8652L161.945 105.025C161.988 105.18 162.068 105.321 162.177 105.438L170.584 114.418C170.729 114.573 170.82 114.769 170.846 114.98L172.644 129.648C172.683 129.963 172.869 130.241 173.146 130.397L183.701 136.346M90.1426 152.439L107.68 162.447C108.154 162.718 108.758 162.558 109.036 162.089L111.761 157.496C111.931 157.209 112.233 157.026 112.566 157.008L131.395 155.972C131.779 155.951 132.117 155.711 132.264 155.355L136.383 145.378C136.473 145.161 136.483 144.92 136.412 144.696L134.567 138.852C134.354 138.178 134.889 137.502 135.594 137.554L151.541 138.725C151.72 138.738 151.9 138.703 152.061 138.622L157.401 135.952C157.862 135.722 158.421 135.878 158.695 136.314L161.711 141.105M164.311 141.105L183.701 136.346M183.701 136.346L209.182 125.9C209.551 125.749 209.974 125.831 210.259 126.109L216.681 132.364C217.11 132.781 217.806 132.732 218.171 132.258L226.553 121.379C226.758 121.113 227.083 120.968 227.418 120.992L232.279 121.346M170.457 176.928L180.026 173.658C180.267 173.576 180.469 173.404 180.587 173.177L186.424 162.069C186.537 161.854 186.725 161.687 186.952 161.6L196.942 157.772C197.169 157.685 197.421 157.684 197.649 157.769L241.686 174.161C242.224 174.361 242.818 174.07 242.99 173.523L245.273 166.233" stroke="#AFB8C1" stroke-linecap="round" stroke-linejoin="round"/>
<path d="M119 122C119 116.477 123.477 112 129 112C134.523 112 139 116.477 139 122C139 127.523 134.523 132 129 132C123.477 132 119 127.523 119 122Z" fill="#262E39"/>
<path d="M130.395 117.516V126H128.859V119.004H128.812L126.832 120.27V118.875L128.93 117.516H130.395Z" fill="white"/>
<path d="M239 190C239 184.477 243.477 180 249 180C254.523 180 259 184.477 259 190C259 195.523 254.523 200 249 200C243.477 200 239 195.523 239 190Z" fill="#262E39"/>
<path d="M250.395 185.516V194H248.859V187.004H248.812L246.832 188.27V186.875L248.93 185.516H250.395Z" fill="white"/>
</svg>
