<svg width="324" height="256" viewBox="0 0 324 256" fill="none" xmlns="http://www.w3.org/2000/svg">
<rect width="324" height="256" rx="16" fill="#F2F3F5"/>
<path d="M130.453 106.645L114.955 94.3542C114.288 93.8252 114.029 92.9321 114.31 92.1284L127.644 53.9027C128.081 52.6512 129.592 52.1628 130.678 52.922L143.336 61.7668C144.149 62.3352 145.256 62.2213 145.936 61.4993L166.021 40.1927C166.72 39.4507 167.866 39.3537 168.68 39.9675L179.566 48.174C179.828 48.3717 180.135 48.5018 180.46 48.5527L204.714 52.3641C206.033 52.5714 207.181 51.4528 207.007 50.1289L204.911 34.1058C204.754 32.9084 205.686 31.8463 206.894 31.8463H214.15C215.178 31.8463 216.039 31.0663 216.14 30.0429L217.234 18.9704C217.374 17.5541 218.906 16.733 220.163 17.4009L238.875 27.3469C239.117 27.4758 239.331 27.6533 239.501 27.8683L257.48 50.4805C257.935 51.0533 258.667 51.3316 259.388 51.2062L266.459 49.9765C266.948 49.8916 267.45 49.991 267.869 50.2555L282.791 59.6707C283.332 60.0115 283.677 60.59 283.72 61.2273L285.564 88.5268C285.592 88.943 285.49 89.3576 285.27 89.7126L282.008 94.9949C281.686 95.515 281.145 95.8596 280.538 95.9305L271.529 96.9815C270.521 97.0991 269.761 97.9531 269.761 98.968V127.629C269.761 128.289 269.435 128.908 268.889 129.28L263.637 132.867C262.635 133.552 262.468 134.964 263.284 135.863L275.673 149.506C276.481 150.396 276.327 151.794 275.343 152.486L267.663 157.89C267.032 158.334 266.203 158.376 265.531 157.998L261.39 155.669C260.76 155.314 260.371 154.648 260.371 153.926V150.835C260.371 149.73 259.475 148.835 258.371 148.835H257.284C256.18 148.835 255.284 149.73 255.284 150.835V157.693C255.284 158.279 255.027 158.836 254.581 159.216L233.235 177.386C232.356 178.134 232.291 179.469 233.094 180.299L237.853 185.223L248.202 195.928C248.482 196.218 248.669 196.587 248.736 196.985L251.039 210.639C251.223 211.728 250.488 212.76 249.399 212.944L235.899 215.219C234.823 215.4 234.091 216.411 234.254 217.49L235.236 224.001C235.398 225.068 234.683 226.07 233.622 226.266L218.623 229.038C217.942 229.164 217.244 228.928 216.778 228.415L210.416 221.4C210.082 221.032 209.897 220.553 209.897 220.056V203.574C209.897 202.87 209.527 202.217 208.922 201.857L160.073 172.732C159.014 172.101 157.643 172.567 157.189 173.713L154.447 180.634C154.145 181.396 153.408 181.897 152.587 181.897H138.051C137.352 181.897 136.705 182.261 136.342 182.858L128.123 196.374L133.17 208.811C133.437 209.469 133.335 210.218 132.903 210.781L125.789 220.046C125.41 220.539 124.824 220.828 124.202 220.828H109.531C109.277 220.828 109.025 220.779 108.789 220.685L102.851 218.31C102.491 218.166 102.097 218.13 101.716 218.206L90.2126 220.506C89.2777 220.693 88.6048 221.514 88.6048 222.468V235.719C88.6048 237.416 86.6233 238.342 85.3214 237.253L79.4261 232.32C79.1592 232.097 78.8386 231.947 78.496 231.885L66.0343 229.648C64.8346 229.433 64.1048 228.204 64.4903 227.048L67.3253 218.542C67.4246 218.244 67.4524 217.927 67.4062 217.616L63.841 193.598C63.7876 193.238 63.637 192.9 63.4055 192.619L58.1952 186.304C57.6599 185.655 57.5878 184.74 58.0149 184.015L63.5846 174.564C63.7003 174.368 63.7816 174.153 63.8249 173.929L67.4764 155.095L64.8279 153.701C64.1708 153.355 63.7594 152.674 63.7594 151.931V146.727C63.7594 145.622 62.864 144.727 61.7594 144.727H58.6483C57.8351 144.727 57.1029 144.234 56.7961 143.481L55.4571 140.194C55.2611 139.713 54.8857 139.328 54.4103 139.118L46.44 135.611C45.7789 135.321 45.0124 135.409 44.4345 135.842L42.3152 137.432C41.7793 137.834 41.0778 137.94 40.4464 137.716L38.8243 137.141C37.3373 136.613 37.0183 134.652 38.2612 133.68L45.5452 127.986C45.936 127.68 46.4264 127.531 46.9212 127.566L60.5951 128.555C61.6156 128.629 62.5271 127.921 62.7079 126.914L63.4638 122.702C63.6349 121.749 64.4641 121.055 65.4324 121.055H70.9001C71.7733 121.055 72.5456 120.489 72.8078 119.656L77.9474 103.33C78.4165 101.84 80.3365 101.439 81.3629 102.617L90.2684 112.836C90.6971 113.328 91.3389 113.58 91.9878 113.511L99.1049 112.754C99.7576 112.684 100.335 112.299 100.649 111.723L103.682 106.162C104.284 105.059 105.742 104.778 106.711 105.578L121.112 117.467C121.471 117.763 121.921 117.925 122.386 117.925H132.378C133.8 117.925 134.768 116.481 134.228 115.165L131.06 107.452C130.93 107.136 130.721 106.858 130.453 106.645Z" fill="white"/>
<path d="M67.4764 155.095L64.8279 153.701C64.1708 153.355 63.7594 152.674 63.7594 151.931V146.727C63.7594 145.622 62.864 144.727 61.7594 144.727H58.6483C57.8351 144.727 57.1029 144.234 56.7961 143.481L55.4571 140.194C55.2611 139.713 54.8857 139.328 54.4103 139.118L46.44 135.611C45.7789 135.321 45.0124 135.409 44.4345 135.842L42.3152 137.432C41.7793 137.834 41.0778 137.94 40.4464 137.716L38.8243 137.141C37.3373 136.613 37.0183 134.652 38.2612 133.68L45.5452 127.986C45.936 127.68 46.4264 127.531 46.9212 127.566L60.5951 128.555C61.6156 128.629 62.5271 127.921 62.7079 126.914L63.4638 122.702C63.6349 121.749 64.4641 121.055 65.4324 121.055H70.9001C71.7733 121.055 72.5456 120.489 72.8078 119.656L77.9474 103.33C78.4165 101.84 80.3365 101.439 81.3629 102.617L90.2684 112.836C90.6971 113.328 91.3389 113.58 91.9878 113.511L99.1049 112.754C99.7576 112.684 100.335 112.299 100.649 111.723L103.682 106.162C104.284 105.059 105.742 104.778 106.711 105.578L121.112 117.467C121.471 117.763 121.921 117.925 122.386 117.925H132.378C133.8 117.925 134.768 116.481 134.228 115.165L131.06 107.452C130.93 107.136 130.721 106.858 130.453 106.645L114.955 94.3542C114.288 93.8252 114.029 92.9321 114.31 92.1284L127.644 53.9027C128.081 52.6512 129.592 52.1628 130.678 52.922L143.336 61.7668C144.149 62.3352 145.256 62.2213 145.936 61.4993L166.021 40.1927C166.72 39.4507 167.866 39.3537 168.68 39.9675L179.566 48.174C179.828 48.3717 180.135 48.5018 180.46 48.5528L204.714 52.3641C206.033 52.5714 207.181 51.4528 207.007 50.1289L204.911 34.1058C204.754 32.9084 205.686 31.8463 206.894 31.8463H214.15C215.178 31.8463 216.039 31.0663 216.14 30.0429L217.234 18.9704C217.374 17.5541 218.906 16.733 220.163 17.4009L238.875 27.3469C239.117 27.4758 239.331 27.6533 239.501 27.8683L257.48 50.4805C257.935 51.0533 258.667 51.3316 259.388 51.2062L266.459 49.9765C266.948 49.8916 267.45 49.991 267.869 50.2554L282.791 59.6707C283.332 60.0115 283.677 60.59 283.72 61.2273L285.564 88.5268C285.592 88.943 285.49 89.3576 285.27 89.7126L282.008 94.9949C281.686 95.515 281.145 95.8597 280.538 95.9305L271.529 96.9815C270.521 97.0991 269.761 97.9531 269.761 98.968V127.629C269.761 128.289 269.435 128.908 268.889 129.28L263.637 132.867C262.635 133.552 262.468 134.964 263.284 135.863L275.673 149.506C276.481 150.396 276.327 151.794 275.343 152.486L267.663 157.89C267.032 158.334 266.203 158.376 265.531 157.998L261.39 155.669C260.76 155.314 260.371 154.648 260.371 153.926V150.835C260.371 149.73 259.475 148.835 258.371 148.835H257.284C256.18 148.835 255.284 149.73 255.284 150.835V157.693C255.284 158.279 255.027 158.836 254.581 159.216L233.235 177.386C232.356 178.134 232.291 179.469 233.094 180.299L237.853 185.223L248.202 195.928C248.482 196.218 248.669 196.587 248.736 196.985L251.039 210.639C251.223 211.728 250.488 212.76 249.399 212.944L235.899 215.219C234.823 215.4 234.091 216.411 234.254 217.49L235.236 224.001C235.398 225.068 234.683 226.07 233.622 226.266L218.623 229.038C217.942 229.164 217.244 228.928 216.778 228.415L210.416 221.4C210.082 221.032 209.897 220.553 209.897 220.056V203.574C209.897 202.87 209.527 202.217 208.922 201.857L160.073 172.732C159.014 172.101 157.643 172.567 157.189 173.713L154.447 180.634C154.145 181.396 153.408 181.897 152.587 181.897H138.051C137.352 181.897 136.705 182.261 136.342 182.858L128.123 196.374M67.4764 155.095L63.8249 173.929C63.7816 174.153 63.7003 174.368 63.5846 174.564L58.0149 184.015C57.5878 184.74 57.6599 185.655 58.1952 186.304L63.4055 192.619C63.637 192.9 63.7876 193.238 63.841 193.598L67.4063 217.616C67.4524 217.927 67.4246 218.244 67.3253 218.542L64.4903 227.047C64.1048 228.204 64.8346 229.433 66.0343 229.648L78.496 231.885C78.8386 231.947 79.1592 232.097 79.4261 232.32L85.3214 237.253C86.6233 238.342 88.6048 237.416 88.6048 235.719V222.468C88.6048 221.514 89.2777 220.693 90.2126 220.506L101.716 218.206C102.097 218.13 102.491 218.166 102.851 218.31L108.789 220.685C109.025 220.779 109.277 220.828 109.531 220.828H124.202C124.824 220.828 125.41 220.539 125.789 220.046L132.903 210.781C133.335 210.218 133.437 209.469 133.17 208.811L128.123 196.374M67.4764 155.095L86.0012 164.262C86.2977 164.409 86.6259 164.48 86.9564 164.468L102.245 163.947C103.097 163.918 103.874 164.432 104.18 165.228L106.217 170.524C106.458 171.151 106.368 171.857 105.977 172.404L104.252 174.82C103.885 175.334 103.782 175.991 103.975 176.593L109.875 194.985C110.14 195.812 110.91 196.374 111.779 196.374H128.123" stroke="#262E39" stroke-linejoin="round"/>
<path d="M255.284 148.835L245.112 149.987C244.982 150.001 244.857 150.041 244.743 150.104L233.079 156.5C232.889 156.604 232.671 156.644 232.457 156.613L228.809 156.092C228.098 155.991 227.516 156.648 227.701 157.341L229.332 163.419C229.413 163.721 229.348 164.044 229.155 164.292L228.511 165.12C227.927 165.871 226.722 165.458 226.722 164.506V164.506C226.722 164.133 226.514 163.791 226.183 163.619L222.048 161.468C221.906 161.394 221.747 161.356 221.587 161.356H217.527M261.74 134.163L249.269 133.272C248.637 133.227 248.206 132.614 248.377 132.004L251.034 122.539C251.123 122.222 251.051 121.883 250.841 121.63L242.715 111.842C242.618 111.725 242.549 111.589 242.513 111.442L233.684 75.5485C233.611 75.2533 233.408 75.0072 233.133 74.8797L215.375 66.6693M207.354 52.7793L214.804 58.5531C215.042 58.7371 215.184 59.0182 215.191 59.3185L215.375 66.6693M215.375 66.6693L205.478 68.8687C205.076 68.958 204.77 69.2848 204.706 69.6918L202.705 82.6124C202.675 82.8045 202.59 82.9838 202.46 83.1283L197.799 88.3071C197.541 88.5935 197.471 89.0024 197.618 89.3584L199.366 93.5825C199.568 94.0699 199.356 94.6301 198.883 94.8625L189.465 99.4857C189.154 99.6384 188.944 99.9411 188.91 100.286L187.987 109.709M187.987 109.709L159.634 110.48C159.374 110.487 159.127 110.595 158.945 110.782L152.285 117.623C152.096 117.816 151.838 117.925 151.568 117.925H135.361H122.399C121.963 117.925 121.578 118.208 121.446 118.623L118.182 128.932C118.045 129.363 118.215 129.833 118.597 130.076L124.788 134.032C124.923 134.118 125.034 134.235 125.115 134.372L138.007 156.554C138.186 156.862 138.515 157.052 138.871 157.052H158.055M187.987 109.709L201.29 115.186M158.055 157.052V163.926C158.055 164.274 157.874 164.597 157.577 164.778L153.46 167.302C152.805 167.703 152.828 168.662 153.501 169.032L158.055 171.529M158.055 157.052L168.074 155.412C168.513 155.34 168.851 154.987 168.905 154.546L169.597 148.835M169.597 148.835L177.101 159.34C177.301 159.621 177.631 159.778 177.975 159.757L199.406 158.464C199.831 158.438 200.226 158.685 200.389 159.078L206.718 174.268M169.597 148.835L171.879 145.149C172.044 144.883 172.323 144.709 172.634 144.68L179.734 144.004C180.115 143.967 180.442 143.717 180.576 143.358L184.588 132.597C184.636 132.469 184.71 132.351 184.806 132.252L201.29 115.186M208.919 182.941L209.455 182.369C209.724 182.082 209.8 181.664 209.649 181.3L206.718 174.268M208.919 182.941L204.683 187.46C204.317 187.85 204.323 188.459 204.697 188.842L211.614 195.928C211.881 196.201 211.969 196.602 211.841 196.961L209.898 202.439M208.919 182.941L209.21 185.509C209.267 186.015 209.695 186.397 210.204 186.397H213.095C213.523 186.397 213.903 186.669 214.042 187.073L215.86 192.387C216.093 193.069 216.948 193.288 217.48 192.802L220.608 189.946C220.767 189.801 220.969 189.711 221.183 189.69L226.124 189.195C226.492 189.159 226.85 189.328 227.055 189.636L228.914 192.423C229.217 192.878 229.83 193.005 230.289 192.708L232.015 191.591C232.451 191.309 232.599 190.74 232.354 190.281L231.728 189.107C231.454 188.594 231.674 187.957 232.206 187.722L237.853 185.223M201.29 115.186L210.616 115.714C211.184 115.746 211.611 116.246 211.554 116.812L210.911 123.246C210.888 123.474 210.944 123.703 211.07 123.894L218.892 135.815C219.022 136.011 219.216 136.156 219.441 136.224L224.212 137.655C224.652 137.787 224.946 138.202 224.923 138.661L224.396 149.568C224.382 149.849 224.251 150.111 224.034 150.29L216.014 156.916C215.643 157.222 215.543 157.748 215.774 158.169L217.527 161.356M217.527 161.356L216.433 172.119C216.386 172.577 216.034 172.944 215.578 173.008L206.718 174.268M67.4766 155.095L86.2272 164.374C86.3754 164.447 86.5395 164.483 86.7048 164.477L102.957 163.923C103.383 163.909 103.771 164.166 103.924 164.564L106.41 171.026C106.531 171.34 106.486 171.693 106.29 171.967L103.961 175.228C103.777 175.485 103.726 175.814 103.822 176.115L110.097 195.679C110.23 196.093 110.615 196.374 111.05 196.374H128.123" stroke="#AFB8C1" stroke-linecap="round" stroke-linejoin="round"/>
<path d="M98 147C98 141.477 102.477 137 108 137C113.523 137 118 141.477 118 147C118 152.523 113.523 157 108 157C102.477 157 98 152.523 98 147Z" fill="#262E39"/>
<path d="M109.395 142.516V151H107.859V144.004H107.812L105.832 145.27V143.875L107.93 142.516H109.395Z" fill="white"/>
</svg>
