<svg width="16" height="16" viewBox="0 0 16 16" fill="none" xmlns="http://www.w3.org/2000/svg">
<circle cx="7.99986" cy="8.00016" r="6.5" fill="#86909E"/>
<path d="M7.06654 9.20026L5.63321 7.76693C5.51098 7.6447 5.35543 7.58359 5.16654 7.58359C4.97765 7.58359 4.8221 7.6447 4.69987 7.76693C4.57765 7.88915 4.51654 8.0447 4.51654 8.23359C4.51654 8.42248 4.57765 8.57804 4.69987 8.70026L6.59987 10.6003C6.73321 10.7336 6.88876 10.8003 7.06654 10.8003C7.24432 10.8003 7.39987 10.7336 7.53321 10.6003L11.2999 6.83359C11.4221 6.71137 11.4832 6.55582 11.4832 6.36693C11.4832 6.17804 11.4221 6.02248 11.2999 5.90026C11.1777 5.77804 11.0221 5.71693 10.8332 5.71693C10.6443 5.71693 10.4888 5.77804 10.3665 5.90026L7.06654 9.20026Z" fill="white"/>
</svg>
