<svg width="16" height="16" viewBox="0 0 16 16" fill="none" xmlns="http://www.w3.org/2000/svg">
<g clip-path="url(#clip0_2_4573)">
<circle cx="8" cy="8" r="8" fill="#262E39"/>
<path d="M8.00009 9.11984L10.3201 11.4398C10.4668 11.5865 10.6534 11.6598 10.8801 11.6598C11.1068 11.6598 11.2934 11.5865 11.4401 11.4398C11.5868 11.2932 11.6601 11.1065 11.6601 10.8798C11.6601 10.6532 11.5868 10.4665 11.4401 10.3198L9.12009 7.99984L11.4401 5.67984C11.5868 5.53318 11.6601 5.34651 11.6601 5.11984C11.6601 4.89318 11.5868 4.70651 11.4401 4.55984C11.2934 4.41318 11.1068 4.33984 10.8801 4.33984C10.6534 4.33984 10.4668 4.41318 10.3201 4.55984L8.00009 6.87984L5.68009 4.55984C5.53342 4.41318 5.34675 4.33984 5.12009 4.33984C4.89342 4.33984 4.70675 4.41318 4.56009 4.55984C4.41342 4.70651 4.34009 4.89318 4.34009 5.11984C4.34009 5.34651 4.41342 5.53318 4.56009 5.67984L6.88009 7.99984L4.56009 10.3198C4.41342 10.4665 4.34009 10.6532 4.34009 10.8798C4.34009 11.1065 4.41342 11.2932 4.56009 11.4398C4.70675 11.5865 4.89342 11.6598 5.12009 11.6598C5.34675 11.6598 5.53342 11.5865 5.68009 11.4398L8.00009 9.11984Z" fill="white"/>
</g>
<defs>
<clipPath id="clip0_2_4573">
<rect width="16" height="16" fill="white"/>
</clipPath>
</defs>
</svg>
