<svg width="16" height="16" viewBox="0 0 16 16" fill="none" xmlns="http://www.w3.org/2000/svg">
<path d="M8.66667 7.73325V5.33325C8.66667 5.14436 8.60278 4.98603 8.475 4.85825C8.34722 4.73047 8.18889 4.66659 8 4.66659C7.81111 4.66659 7.65278 4.73047 7.525 4.85825C7.39722 4.98603 7.33334 5.14436 7.33334 5.33325V7.98325C7.33334 8.07214 7.35 8.15825 7.38334 8.24158C7.41667 8.32492 7.46667 8.39992 7.53334 8.46658L9.73334 10.6666C9.85556 10.7888 10.0111 10.8499 10.2 10.8499C10.3889 10.8499 10.5444 10.7888 10.6667 10.6666C10.7889 10.5444 10.85 10.3888 10.85 10.1999C10.85 10.011 10.7889 9.85547 10.6667 9.73325L8.66667 7.73325ZM8 14.6666C7.07778 14.6666 6.21111 14.4916 5.4 14.1416C4.58889 13.7916 3.88334 13.3166 3.28334 12.7166C2.68334 12.1166 2.20834 11.411 1.85834 10.5999C1.50834 9.78881 1.33334 8.92214 1.33334 7.99992C1.33334 7.0777 1.50834 6.21103 1.85834 5.39992C2.20834 4.58881 2.68334 3.88325 3.28334 3.28325C3.88334 2.68325 4.58889 2.20825 5.4 1.85825C6.21111 1.50825 7.07778 1.33325 8 1.33325C8.92222 1.33325 9.78889 1.50825 10.6 1.85825C11.4111 2.20825 12.1167 2.68325 12.7167 3.28325C13.3167 3.88325 13.7917 4.58881 14.1417 5.39992C14.4917 6.21103 14.6667 7.0777 14.6667 7.99992C14.6667 8.92214 14.4917 9.78881 14.1417 10.5999C13.7917 11.411 13.3167 12.1166 12.7167 12.7166C12.1167 13.3166 11.4111 13.7916 10.6 14.1416C9.78889 14.4916 8.92222 14.6666 8 14.6666Z" fill="#E42939"/>
</svg>
