<svg width="24" height="24" viewBox="0 0 24 24" fill="none" xmlns="http://www.w3.org/2000/svg">
<path d="M11 23.0001V21.0001C8.91665 20.7668 7.12915 19.9043 5.63749 18.4126C4.14582 16.9209 3.28332 15.1334 3.04999 13.0501H1.04999V11.0501H3.04999C3.28332 8.96676 4.14582 7.17926 5.63749 5.6876C7.12915 4.19593 8.91665 3.33343 11 3.1001V1.1001H13V3.1001C15.0833 3.33343 16.8708 4.19593 18.3625 5.6876C19.8542 7.17926 20.7167 8.96676 20.95 11.0501H22.95V13.0501H20.95C20.7167 15.1334 19.8542 16.9209 18.3625 18.4126C16.8708 19.9043 15.0833 20.7668 13 21.0001V23.0001H11ZM12 19.0501C13.9333 19.0501 15.5833 18.3668 16.95 17.0001C18.3167 15.6334 19 13.9834 19 12.0501C19 10.1168 18.3167 8.46676 16.95 7.1001C15.5833 5.73343 13.9333 5.0501 12 5.0501C10.0667 5.0501 8.41665 5.73343 7.04999 7.1001C5.68332 8.46676 4.99999 10.1168 4.99999 12.0501C4.99999 13.9834 5.68332 15.6334 7.04999 17.0001C8.41665 18.3668 10.0667 19.0501 12 19.0501Z" fill="#86909E"/>
</svg>
