<svg width="80" height="80" viewBox="0 0 80 80" fill="none" xmlns="http://www.w3.org/2000/svg">
<path d="M40 6C47.1437 6 53.4303 8.55828 58.8584 13.6758C64.2865 18.7933 67 25.6656 67 34.2905C66.9999 37.9818 66.0757 41.8788 64.2314 45.984C63.3196 48.0136 60.6699 48.3657 59.0965 46.7923L54.7716 42.4675C53.6826 41.3784 53.5087 39.7019 54.0496 38.2599C54.6636 36.6233 55 34.8511 55 33C55 24.7157 48.2843 18 40 18C31.7157 18 25 24.7157 25 33C25 41.2843 31.7157 48 40 48C41.8511 48 43.6233 47.6636 45.2599 47.0496C46.7019 46.5087 48.3784 46.6826 49.4675 47.7717L55.9234 54.2276C57.1108 55.415 57.25 57.2986 56.1949 58.605C52.4951 63.1855 47.8315 68.0034 42.2007 73.0562C40.9478 74.1804 39.0515 74.1798 37.7986 73.0557C29.8398 65.9152 23.8093 59.2464 19.7075 53.0493C15.2359 46.2933 13.0001 40.0403 13 34.2905C13 25.6656 15.7135 18.7933 21.1416 13.6758C26.5697 8.55828 32.8563 6 40 6ZM40 25.5C44.1421 25.5 47.5 28.8579 47.5 33C47.5 37.1421 44.1421 40.5 40 40.5C35.8579 40.5 32.5 37.1421 32.5 33C32.5 28.8579 35.8579 25.5 40 25.5Z" fill="#262E39"/>
</svg>
