<svg width="16" height="16" viewBox="0 0 16 16" fill="none" xmlns="http://www.w3.org/2000/svg">
<path d="M7.06654 9.20016L5.63321 7.76683C5.51098 7.64461 5.35543 7.5835 5.16654 7.5835C4.97765 7.5835 4.82209 7.64461 4.69987 7.76683C4.57765 7.88905 4.51654 8.04461 4.51654 8.2335C4.51654 8.42238 4.57765 8.57794 4.69987 8.70016L6.59987 10.6002C6.73321 10.7335 6.88876 10.8002 7.06654 10.8002C7.24432 10.8002 7.39987 10.7335 7.53321 10.6002L11.2999 6.8335C11.4221 6.71127 11.4832 6.55572 11.4832 6.36683C11.4832 6.17794 11.4221 6.02238 11.2999 5.90016C11.1777 5.77794 11.0221 5.71683 10.8332 5.71683C10.6443 5.71683 10.4888 5.77794 10.3665 5.90016L7.06654 9.20016ZM7.99987 14.6668C7.07765 14.6668 6.21098 14.4918 5.39987 14.1418C4.58876 13.7918 3.88321 13.3168 3.28321 12.7168C2.68321 12.1168 2.20821 11.4113 1.85821 10.6002C1.50821 9.78905 1.33321 8.92238 1.33321 8.00016C1.33321 7.07794 1.50821 6.21127 1.85821 5.40016C2.20821 4.58905 2.68321 3.8835 3.28321 3.2835C3.88321 2.6835 4.58876 2.2085 5.39987 1.8585C6.21098 1.5085 7.07765 1.3335 7.99987 1.3335C8.92209 1.3335 9.78876 1.5085 10.5999 1.8585C11.411 2.2085 12.1165 2.6835 12.7165 3.2835C13.3165 3.8835 13.7915 4.58905 14.1415 5.40016C14.4915 6.21127 14.6665 7.07794 14.6665 8.00016C14.6665 8.92238 14.4915 9.78905 14.1415 10.6002C13.7915 11.4113 13.3165 12.1168 12.7165 12.7168C12.1165 13.3168 11.411 13.7918 10.5999 14.1418C9.78876 14.4918 8.92209 14.6668 7.99987 14.6668Z" fill="#1B64DA"/>
</svg>
