<svg width="24" height="24" viewBox="0 0 24 24" fill="none" xmlns="http://www.w3.org/2000/svg">
<rect x="3" y="3" width="18" height="18" rx="2" fill="#262E39"/>
<path d="M11 13V16C11 16.2833 11.0958 16.5208 11.2875 16.7125C11.4792 16.9042 11.7167 17 12 17C12.2833 17 12.5208 16.9042 12.7125 16.7125C12.9042 16.5208 13 16.2833 13 16V13H16C16.2833 13 16.5208 12.9042 16.7125 12.7125C16.9042 12.5208 17 12.2833 17 12C17 11.7167 16.9042 11.4792 16.7125 11.2875C16.5208 11.0958 16.2833 11 16 11H13V8C13 7.71667 12.9042 7.47917 12.7125 7.2875C12.5208 7.09583 12.2833 7 12 7C11.7167 7 11.4792 7.09583 11.2875 7.2875C11.0958 7.47917 11 7.71667 11 8V11H8C7.71667 11 7.47917 11.0958 7.2875 11.2875C7.09583 11.4792 7 11.7167 7 12C7 12.2833 7.09583 12.5208 7.2875 12.7125C7.47917 12.9042 7.71667 13 8 13H11Z" fill="white"/>
</svg>
