<svg width="48" height="48" viewBox="0 0 48 48" fill="none" xmlns="http://www.w3.org/2000/svg">
<circle cx="24" cy="24" r="20" fill="#1B64DA"/>
<path d="M21.2 27.5999L16.9 23.2999C16.5333 22.9332 16.0667 22.7499 15.5 22.7499C14.9333 22.7499 14.4667 22.9332 14.1 23.2999C13.7333 23.6666 13.55 24.1332 13.55 24.6999C13.55 25.2666 13.7333 25.7332 14.1 26.0999L19.8 31.7999C20.2 32.1999 20.6667 32.3999 21.2 32.3999C21.7333 32.3999 22.2 32.1999 22.6 31.7999L33.9 20.4999C34.2667 20.1332 34.45 19.6666 34.45 19.0999C34.45 18.5332 34.2667 18.0666 33.9 17.6999C33.5333 17.3332 33.0667 17.1499 32.5 17.1499C31.9333 17.1499 31.4667 17.3332 31.1 17.6999L21.2 27.5999Z" fill="white"/>
</svg>
