<svg width="48" height="48" viewBox="0 0 48 48" fill="none" xmlns="http://www.w3.org/2000/svg">
<circle cx="24" cy="24" r="20" fill="#1B64DA"/>
<path d="M21.2 27.6L16.9 23.3C16.5333 22.9334 16.0667 22.75 15.5 22.75C14.9333 22.75 14.4667 22.9334 14.1 23.3C13.7333 23.6667 13.55 24.1334 13.55 24.7C13.55 25.2667 13.7333 25.7334 14.1 26.1L19.8 31.8C20.2 32.2 20.6667 32.4 21.2 32.4C21.7333 32.4 22.2 32.2 22.6 31.8L33.9 20.5C34.2667 20.1334 34.45 19.6667 34.45 19.1C34.45 18.5334 34.2667 18.0667 33.9 17.7C33.5333 17.3334 33.0667 17.15 32.5 17.15C31.9333 17.15 31.4667 17.3334 31.1 17.7L21.2 27.6Z" fill="white"/>
</svg>
