<svg width="24" height="24" viewBox="0 0 24 24" fill="none" xmlns="http://www.w3.org/2000/svg">
<path d="M12 17.5581L7.63747 20.1861C7.44474 20.3087 7.24326 20.3613 7.03302 20.3438C6.82278 20.3263 6.63881 20.2562 6.48113 20.1335C6.32345 20.0109 6.20081 19.8576 6.11321 19.6736C6.02561 19.4897 6.00809 19.2838 6.06065 19.056L7.21698 14.0891L3.35377 10.7515C3.17857 10.5938 3.06907 10.4142 3.02527 10.2127C2.98147 10.0112 2.99461 9.81413 3.06469 9.62141C3.13477 9.42869 3.23989 9.271 3.38005 9.14836C3.52022 9.02572 3.71294 8.94688 3.95822 8.91184L9.0566 8.46507L11.0276 3.78718C11.1152 3.57693 11.251 3.41925 11.435 3.31413C11.6189 3.20901 11.8073 3.15645 12 3.15645C12.1927 3.15645 12.3811 3.20901 12.565 3.31413C12.749 3.41925 12.8848 3.57693 12.9724 3.78718L14.9434 8.46507L20.0418 8.91184C20.2871 8.94688 20.4798 9.02572 20.6199 9.14836C20.7601 9.271 20.8652 9.42869 20.9353 9.62141C21.0054 9.81413 21.0185 10.0112 20.9747 10.2127C20.9309 10.4142 20.8214 10.5938 20.6462 10.7515L16.783 14.0891L17.9394 19.056C17.9919 19.2838 17.9744 19.4897 17.8868 19.6736C17.7992 19.8576 17.6765 20.0109 17.5189 20.1335C17.3612 20.2562 17.1772 20.3263 16.967 20.3438C16.7567 20.3613 16.5553 20.3087 16.3625 20.1861L12 17.5581Z" fill="#AFB8C1"/>
</svg>
