<svg width="16" height="16" viewBox="0 0 16 16" fill="none" xmlns="http://www.w3.org/2000/svg">
<path d="M12.4 7.99987L9.80003 5.39987C9.67781 5.27765 9.6167 5.12209 9.6167 4.9332C9.6167 4.74431 9.67781 4.58876 9.80003 4.46654C9.92225 4.34431 10.0778 4.2832 10.2667 4.2832C10.4556 4.2832 10.6111 4.34431 10.7334 4.46654L13.8 7.5332C13.8667 7.59987 13.9139 7.67209 13.9417 7.74987C13.9695 7.82765 13.9834 7.91098 13.9834 7.99987C13.9834 8.08876 13.9695 8.17209 13.9417 8.24987C13.9139 8.32765 13.8667 8.39987 13.8 8.46654L10.7334 11.5332C10.6111 11.6554 10.4556 11.7165 10.2667 11.7165C10.0778 11.7165 9.92225 11.6554 9.80003 11.5332C9.67781 11.411 9.6167 11.2554 9.6167 11.0665C9.6167 10.8776 9.67781 10.7221 9.80003 10.5999L12.4 7.99987Z" fill="#AFB8C1"/>
</svg>
