<svg width="16" height="16" viewBox="0 0 16 16" fill="none" xmlns="http://www.w3.org/2000/svg">
<circle cx="7.99997" cy="7.99992" r="6.5" fill="#E42939"/>
<path d="M8.66668 7.73333V5.33333C8.66668 5.14444 8.60279 4.98611 8.47501 4.85833C8.34723 4.73055 8.1889 4.66666 8.00001 4.66666C7.81112 4.66666 7.65279 4.73055 7.52501 4.85833C7.39723 4.98611 7.33334 5.14444 7.33334 5.33333V7.98333C7.33334 8.07222 7.35001 8.15833 7.38334 8.24166C7.41668 8.325 7.46668 8.4 7.53334 8.46666L9.73334 10.6667C9.85557 10.7889 10.0111 10.85 10.2 10.85C10.3889 10.85 10.5445 10.7889 10.6667 10.6667C10.7889 10.5444 10.85 10.3889 10.85 10.2C10.85 10.0111 10.7889 9.85555 10.6667 9.73333L8.66668 7.73333Z" fill="white"/>
</svg>
