<svg width="24" height="24" viewBox="0 0 24 24" fill="none" xmlns="http://www.w3.org/2000/svg">
<path d="M9.4872 11.9878L16.8372 19.3378C17.0872 19.5878 17.208 19.8836 17.1997 20.2253C17.1914 20.567 17.0622 20.8628 16.8122 21.1128C16.5622 21.3628 16.2664 21.4878 15.9247 21.4878C15.583 21.4878 15.2872 21.3628 15.0372 21.1128L7.3622 13.4128C7.1622 13.2128 7.0122 12.9878 6.9122 12.7378C6.8122 12.4878 6.7622 12.2378 6.7622 11.9878C6.7622 11.7378 6.8122 11.4878 6.9122 11.2378C7.0122 10.9878 7.1622 10.7628 7.3622 10.5628L15.0622 2.86279C15.3122 2.61279 15.6039 2.49196 15.9372 2.50029C16.2705 2.50863 16.5622 2.63779 16.8122 2.88779C17.0622 3.13779 17.1872 3.43363 17.1872 3.77529C17.1872 4.11696 17.0622 4.41279 16.8122 4.66279L9.4872 11.9878Z" fill="#262E39"/>
</svg>
