<svg width="24" height="24" viewBox="0 0 24 24" fill="none" xmlns="http://www.w3.org/2000/svg">
<path d="M6 22.6C5.45 22.6 4.97917 22.4042 4.5875 22.0125C4.19583 21.6208 4 21.15 4 20.6V9.6C4 9.05 4.19583 8.57917 4.5875 8.1875C4.97917 7.79583 5.45 7.6 6 7.6H8C8.28333 7.6 8.52083 7.69583 8.7125 7.8875C8.90417 8.07917 9 8.31667 9 8.6C9 8.88333 8.90417 9.12083 8.7125 9.3125C8.52083 9.50417 8.28333 9.6 8 9.6H6V20.6H18V9.6H16C15.7167 9.6 15.4792 9.50417 15.2875 9.3125C15.0958 9.12083 15 8.88333 15 8.6C15 8.31667 15.0958 8.07917 15.2875 7.8875C15.4792 7.69583 15.7167 7.6 16 7.6H18C18.55 7.6 19.0208 7.79583 19.4125 8.1875C19.8042 8.57917 20 9.05 20 9.6V20.6C20 21.15 19.8042 21.6208 19.4125 22.0125C19.0208 22.4042 18.55 22.6 18 22.6H6ZM11 4.425L10.1 5.325C9.9 5.525 9.66667 5.62083 9.4 5.6125C9.13333 5.60417 8.9 5.5 8.7 5.3C8.51667 5.1 8.42083 4.86667 8.4125 4.6C8.40417 4.33333 8.5 4.1 8.7 3.9L11.3 1.3C11.5 1.1 11.7333 1 12 1C12.2667 1 12.5 1.1 12.7 1.3L15.3 3.9C15.4833 4.08333 15.575 4.3125 15.575 4.5875C15.575 4.8625 15.4833 5.1 15.3 5.3C15.1 5.5 14.8625 5.6 14.5875 5.6C14.3125 5.6 14.075 5.5 13.875 5.3L13 4.425V14.6C13 14.8833 12.9042 15.1208 12.7125 15.3125C12.5208 15.5042 12.2833 15.6 12 15.6C11.7167 15.6 11.4792 15.5042 11.2875 15.3125C11.0958 15.1208 11 14.8833 11 14.6V4.425Z" fill="#262E39"/>
</svg>
