<svg width="24" height="24" viewBox="0 0 24 24" fill="none" xmlns="http://www.w3.org/2000/svg">
<path d="M4 20C3.45 20 2.97917 19.8042 2.5875 19.4125C2.19583 19.0208 2 18.55 2 18V6C2 5.45 2.19583 4.97917 2.5875 4.5875C2.97917 4.19583 3.45 4 4 4H20C20.55 4 21.0208 4.19583 21.4125 4.5875C21.8042 4.97917 22 5.45 22 6V18C22 18.55 21.8042 19.0208 21.4125 19.4125C21.0208 19.8042 20.55 20 20 20H4ZM6 17H18C18.2833 17 18.5208 16.9042 18.7125 16.7125C18.9042 16.5208 19 16.2833 19 16C19 15.7167 18.9042 15.4792 18.7125 15.2875C18.5208 15.0958 18.2833 15 18 15H6C5.71667 15 5.47917 15.0958 5.2875 15.2875C5.09583 15.4792 5 15.7167 5 16C5 16.2833 5.09583 16.5208 5.2875 16.7125C5.47917 16.9042 5.71667 17 6 17ZM6 13H18C18.2833 13 18.5208 12.9042 18.7125 12.7125C18.9042 12.5208 19 12.2833 19 12C19 11.7167 18.9042 11.4792 18.7125 11.2875C18.5208 11.0958 18.2833 11 18 11H6C5.71667 11 5.47917 11.0958 5.2875 11.2875C5.09583 11.4792 5 11.7167 5 12C5 12.2833 5.09583 12.5208 5.2875 12.7125C5.47917 12.9042 5.71667 13 6 13ZM6 9H14C14.2833 9 14.5208 8.90417 14.7125 8.7125C14.9042 8.52083 15 8.28333 15 8C15 7.71667 14.9042 7.47917 14.7125 7.2875C14.5208 7.09583 14.2833 7 14 7H6C5.71667 7 5.47917 7.09583 5.2875 7.2875C5.09583 7.47917 5 7.71667 5 8C5 8.28333 5.09583 8.52083 5.2875 8.7125C5.47917 8.90417 5.71667 9 6 9Z" fill="#4E5867"/>
</svg>
