<svg width="24" height="24" viewBox="0 0 24 24" fill="none" xmlns="http://www.w3.org/2000/svg">
<path d="M9.48721 11.9879L16.8372 19.3379C17.0872 19.5879 17.208 19.8837 17.1997 20.2254C17.1914 20.5671 17.0622 20.8629 16.8122 21.1129C16.5622 21.3629 16.2664 21.4879 15.9247 21.4879C15.583 21.4879 15.2872 21.3629 15.0372 21.1129L7.36221 13.4129C7.16221 13.2129 7.01221 12.9879 6.91221 12.7379C6.81221 12.4879 6.76221 12.2379 6.76221 11.9879C6.76221 11.7379 6.81221 11.4879 6.91221 11.2379C7.01221 10.9879 7.16221 10.7629 7.36221 10.5629L15.0622 2.86291C15.3122 2.61291 15.6039 2.49208 15.9372 2.50041C16.2705 2.50875 16.5622 2.63791 16.8122 2.88791C17.0622 3.13791 17.1872 3.43375 17.1872 3.77542C17.1872 4.11708 17.0622 4.41291 16.8122 4.66291L9.48721 11.9879Z" fill="#262E39"/>
</svg>
