<svg width="54" height="68" viewBox="0 0 54 68" fill="none" xmlns="http://www.w3.org/2000/svg">
<path d="M27 0C34.1437 1.48022e-07 40.4303 2.55828 45.8584 7.67578C51.2865 12.7933 54 19.6656 54 28.2905C53.9999 32.4246 52.8425 36.8178 50.5306 41.4718C50.0864 42.3661 48.8993 42.5347 48.1932 41.8287L42.208 35.8445C41.7331 35.3698 41.6382 34.6403 41.9251 34.0332C42.9335 31.8996 43.5 29.5165 43.5 27C43.5 17.8873 36.1127 10.5 27 10.5C17.8873 10.5 10.5 17.8873 10.5 27C10.5 36.1127 17.8873 43.5 27 43.5C29.5161 43.5 31.8986 42.9332 34.0319 41.925C34.6389 41.6381 35.3683 41.733 35.843 42.2078L43.6097 49.9744C44.1414 50.5061 44.1985 51.3502 43.7318 51.9398C40.1062 56.5213 35.505 61.3417 29.9277 66.4005C28.2652 67.9084 25.7343 67.908 24.0719 66.4002C16.4718 59.5067 10.6835 53.0564 6.70752 47.0493C2.23586 40.2933 0.000137066 34.0403 0 28.2905C0 19.6656 2.71353 12.7933 8.1416 7.67578C13.5697 2.55828 19.8563 0 27 0ZM27 19.5C31.1421 19.5 34.5 22.8579 34.5 27C34.5 31.1421 31.1421 34.5 27 34.5C22.8579 34.5 19.5 31.1421 19.5 27C19.5 22.8579 22.8579 19.5 27 19.5Z" fill="white"/>
</svg>
