<svg width="24" height="24" viewBox="0 0 24 24" fill="none" xmlns="http://www.w3.org/2000/svg">
<path d="M19.6 12.0008L15.7 8.10078C15.5167 7.91745 15.425 7.68411 15.425 7.40078C15.425 7.11745 15.5167 6.88411 15.7 6.70078C15.8834 6.51745 16.1167 6.42578 16.4 6.42578C16.6834 6.42578 16.9167 6.51745 17.1 6.70078L21.7 11.3008C21.8 11.4008 21.8709 11.5091 21.9125 11.6258C21.9542 11.7424 21.975 11.8674 21.975 12.0008C21.975 12.1341 21.9542 12.2591 21.9125 12.3758C21.8709 12.4924 21.8 12.6008 21.7 12.7008L17.1 17.3008C16.9167 17.4841 16.6834 17.5758 16.4 17.5758C16.1167 17.5758 15.8834 17.4841 15.7 17.3008C15.5167 17.1174 15.425 16.8841 15.425 16.6008C15.425 16.3174 15.5167 16.0841 15.7 15.9008L19.6 12.0008Z" fill="#D1D6DA"/>
</svg>
