<svg width="184" height="224" viewBox="0 0 184 224" fill="none" xmlns="http://www.w3.org/2000/svg">
<path d="M106.817 4.73398L105.348 10.606C105.14 11.439 104.424 12.0461 103.568 12.1146L68.3242 14.9341C67.7964 14.9763 67.3069 15.2261 66.963 15.6287L47.7343 38.1403C47.2787 38.6738 46.5768 38.9295 45.8848 38.8141L40.579 37.9298C39.2794 37.7132 38.1291 38.7906 38.2602 40.1016L38.8199 45.699C38.9221 46.7214 39.7825 47.5 40.81 47.5H43.69C44.7175 47.5 45.5779 48.2786 45.6801 49.301L46.3985 56.4853C46.4623 57.1227 46.8275 57.691 47.3809 58.0138L49.5241 59.264C50.8033 60.0103 50.7431 61.8784 49.4185 62.5408C48.4053 63.0474 48.0746 64.3332 48.7178 65.2657L56.5833 76.6708C57.0529 77.3517 56.7688 78.2925 56.0008 78.5997C55.4215 78.8314 54.7594 78.615 54.4287 78.086L52.8723 75.5957C52.6313 75.2101 52.2661 74.9182 51.837 74.768L43.5564 71.8697C42.9 71.64 42.1714 71.7677 41.6323 72.207L30.5983 81.1977C29.7236 81.9104 29.6113 83.2053 30.3503 84.058L34.9019 89.3099C35.2818 89.7482 35.8332 90 36.4133 90H38.4724C39.3743 90 40.1646 90.6036 40.4019 91.4738L46.9738 115.57C47.2644 116.636 46.6361 117.736 45.5705 118.026L45.0027 118.181C43.5978 118.564 43.0603 120.272 43.9925 121.391L46.1898 124.028C46.6846 124.621 46.793 125.447 46.4683 126.148L34.9888 150.944C34.6867 151.597 34.7582 152.362 35.1763 152.947L38.8433 158.081C39.2508 158.651 39.3299 159.393 39.0516 160.037L32.1529 175.99C31.7736 176.867 32.068 177.89 32.8556 178.432L38.9761 182.64C39.317 182.874 39.5768 183.208 39.7198 183.597L42.2662 190.508C42.6642 191.589 43.8898 192.111 44.9446 191.649L58.2348 185.835C58.7244 185.621 59.108 185.219 59.2998 184.72L61.234 179.692C61.4056 179.245 61.7315 178.875 62.1525 178.649L63.2982 178.032C64.806 177.22 66.4798 178.794 65.7622 180.349C65.3437 181.255 65.7515 182.329 66.6663 182.729L71.9164 185.026C72.5847 185.318 73.3593 185.224 73.9375 184.779L78.1933 181.505C78.9522 180.921 79.1909 179.882 78.7627 179.025L75.8461 173.192C75.3714 172.243 75.7211 171.088 76.6427 170.561L76.7517 170.499C77.7154 169.948 78.9431 170.288 79.4872 171.255L81.5586 174.938C82.2504 176.167 83.9641 176.313 84.854 175.218L88.2666 171.018C88.8996 170.239 88.6484 169.074 87.7506 168.625C86.5203 168.01 86.6207 166.222 87.9121 165.749L97.4495 162.252C98.445 161.887 99.5 162.624 99.5 163.684C99.5 164.44 100.054 165.082 100.802 165.193L111.229 166.738C112.237 166.887 113.196 166.254 113.456 165.268L115.071 159.132C115.319 158.189 116.21 157.563 117.181 157.648L131.918 158.949C132.298 158.982 132.68 158.906 133.018 158.73L143.262 153.385C143.734 153.139 144.089 152.714 144.247 152.205L155.081 117.347C155.332 116.539 155.048 115.661 154.371 115.154L154.338 115.129C153.813 114.735 153.128 114.624 152.506 114.831L151.632 115.123C150.337 115.554 149 114.59 149 113.225V70.046C149 69.6885 148.904 69.3376 148.723 69.0298L110.479 4.20285C109.57 2.662 107.25 2.99841 106.817 4.73398Z" fill="white"/>
<path d="M93 123L103.894 128.447C104.572 128.786 105 129.479 105 130.236V131.567C105 132.645 105.855 133.529 106.932 133.565L133.569 134.468C134.159 134.488 134.728 134.247 135.123 133.808L138.137 130.459C138.662 129.875 139.481 129.653 140.23 129.891L150 133" stroke="#AFB8C1"/>
<g style="mix-blend-mode:multiply">
<path d="M91.0001 51.18L87.3701 66.08C87.3701 66.08 87.3601 66.09 87.3501 66.09L71.0501 79.07L67.6101 75.63C67.0801 75.1 66.3101 74.91 65.6001 75.14L56.9701 77.66C57.1301 77.27 57.1001 76.82 56.8401 76.44L48.9701 65.04C48.3301 64.11 48.6601 62.82 49.6701 62.31C51.0001 61.65 51.0601 59.78 49.7801 59.04L47.6301 57.79C47.0801 57.46 46.7201 56.9 46.6501 56.26L45.9301 49.07C45.8301 48.05 44.9701 47.27 43.9401 47.27H41.0601C40.0401 47.27 39.1801 46.49 39.0701 45.47L38.5101 39.87C38.3801 38.56 39.5301 37.49 40.8301 37.7L46.1401 38.59C46.8301 38.7 47.5301 38.45 47.9901 37.91L64.9901 18H65.0001L81.5701 32.21C82.1001 32.66 82.3501 33.36 82.2401 34.05L80.6801 43.81C80.5301 44.76 81.0701 45.68 81.9701 46L89.7401 48.83C90.7001 49.18 91.2401 50.19 91.0001 51.18Z" fill="#E0E6EB"/>
</g>
<path d="M41.7197 50.3902L39.4174 51.5413C38.1397 52.1802 38.0545 53.9716 39.266 54.7287C39.9883 55.1802 40.9267 55.0733 41.529 54.471L43.3491 52.6509C43.9565 52.0435 43.8852 51.0389 43.1979 50.5234C42.7702 50.2026 42.1979 50.151 41.7197 50.3902Z" fill="white"/>
<path d="M39.2445 97.9312L37.8554 93.2084C37.6542 92.5244 36.964 92.1072 36.2649 92.247C35.5534 92.3893 35.0746 93.0595 35.1705 93.7787L35.8211 98.6584C35.9265 99.4489 36.5517 100.069 37.3431 100.168C38.5974 100.325 39.6012 99.144 39.2445 97.9312Z" fill="white"/>
<path d="M171.368 53.3775L169.239 54.0871C168.499 54.3337 168 55.0259 168 55.8056C168 56.5302 168.432 57.1851 169.098 57.4705L170.739 58.1737C171.226 58.3826 171.777 58.3893 172.269 58.1923L172.743 58.0029C173.502 57.6992 174 56.9637 174 56.1459V55.2749C174 53.9097 172.663 52.9458 171.368 53.3775Z" fill="white"/>
<path d="M179.572 57.371L178.993 57.6026C178.445 57.8221 178.178 58.4448 178.397 58.9934C178.683 59.7066 179.604 59.8958 180.147 59.3526L180.588 58.9116C180.841 58.6594 180.929 58.2862 180.816 57.9477C180.645 57.4336 180.076 57.1697 179.572 57.371Z" fill="white"/>
<path d="M32.3722 155.859L30.0663 157.176C29.7161 157.377 29.5 157.749 29.5 158.152C29.5 158.654 29.8327 159.095 30.3152 159.233L31.8685 159.677C32.5669 159.876 33.3185 159.681 33.8321 159.168L34.4374 158.563C35.3628 157.637 34.9536 156.058 33.6953 155.699C33.2507 155.572 32.7736 155.629 32.3722 155.859Z" fill="white"/>
<path d="M91.7852 167.058L91.6356 167.237C91.2352 167.718 91.0826 168.358 91.2232 168.967L92.0573 172.582C92.3029 173.646 93.3571 174.316 94.4251 174.087L97.9191 173.339C98.8412 173.141 99.5 172.326 99.5 171.383V170.886C99.5 170.052 98.9829 169.306 98.2022 169.013L96.104 168.227C95.7113 168.079 95.3748 167.812 95.1422 167.463L94.9858 167.229C94.2442 166.116 92.6411 166.031 91.7852 167.058Z" fill="white"/>
<path d="M120.037 163.128L116.755 166.628C115.954 167.483 116.341 168.883 117.468 169.205C118.09 169.383 118.539 169.925 118.597 170.569L118.607 170.678C118.748 172.232 120.717 172.815 121.681 171.587L123.883 168.786C124.271 168.291 124.405 167.642 124.243 167.035L123.428 163.98C123.024 162.464 121.11 161.983 120.037 163.128Z" fill="white"/>
<path d="M31.3958 181.104L26.9142 185.586C26.1332 186.367 26.1332 187.633 26.9142 188.414L28.105 189.605C28.6516 190.152 29.4641 190.334 30.1919 190.074L35.0476 188.34C35.6464 188.126 36.1079 187.64 36.2906 187.031L37.0531 184.49C37.316 183.613 36.9509 182.671 36.1665 182.2L33.839 180.803C33.0521 180.331 32.0448 180.455 31.3958 181.104Z" fill="white"/>
<path d="M26.9398 202.723L9.62144 206.369C9.21709 206.454 8.84904 206.663 8.56787 206.965L3.81143 212.088C3.07943 212.876 3.10212 214.102 3.8628 214.863L6.73499 217.735C7.21232 218.212 7.89821 218.417 8.55893 218.278L28.1575 214.176C28.6953 214.064 29.1631 213.735 29.4511 213.267L32.1721 208.845C32.6575 208.057 32.5378 207.038 31.883 206.383L28.7661 203.266C28.2882 202.788 27.6012 202.584 26.9398 202.723Z" fill="white"/>
<path d="M41.7197 50.3902L39.4174 51.5413C38.1397 52.1802 38.0545 53.9716 39.266 54.7287C39.9883 55.1802 40.9267 55.0733 41.529 54.471L43.3491 52.6509C43.9565 52.0435 43.8852 51.0389 43.1979 50.5234C42.7702 50.2026 42.1979 50.151 41.7197 50.3902Z" stroke="#262E39"/>
<path d="M39.2445 97.9312L37.8554 93.2084C37.6542 92.5244 36.964 92.1072 36.2649 92.247C35.5534 92.3893 35.0746 93.0595 35.1705 93.7787L35.8211 98.6584C35.9265 99.4489 36.5517 100.069 37.3431 100.168C38.5974 100.325 39.6012 99.144 39.2445 97.9312Z" stroke="#262E39"/>
<path d="M171.368 53.3775L169.239 54.0871C168.499 54.3337 168 55.0259 168 55.8056C168 56.5302 168.432 57.1851 169.098 57.4705L170.739 58.1737C171.226 58.3826 171.777 58.3893 172.269 58.1923L172.743 58.0029C173.502 57.6992 174 56.9637 174 56.1459V55.2749C174 53.9097 172.663 52.9458 171.368 53.3775Z" stroke="#262E39"/>
<path d="M179.572 57.371L178.993 57.6026C178.445 57.8221 178.178 58.4448 178.397 58.9934C178.683 59.7066 179.604 59.8958 180.147 59.3526L180.588 58.9116C180.841 58.6594 180.929 58.2862 180.816 57.9477C180.645 57.4336 180.076 57.1697 179.572 57.371Z" stroke="#262E39"/>
<path d="M32.3722 155.859L30.0663 157.176C29.7161 157.377 29.5 157.749 29.5 158.152C29.5 158.654 29.8327 159.095 30.3152 159.233L31.8685 159.677C32.5669 159.876 33.3185 159.681 33.8321 159.168L34.4374 158.563C35.3628 157.637 34.9536 156.058 33.6953 155.699C33.2507 155.572 32.7736 155.629 32.3722 155.859Z" stroke="#262E39"/>
<path d="M91.7852 167.058L91.6356 167.237C91.2352 167.718 91.0826 168.358 91.2232 168.967L92.0573 172.582C92.3029 173.646 93.3571 174.316 94.4251 174.087L97.9191 173.339C98.8412 173.141 99.5 172.326 99.5 171.383V170.886C99.5 170.052 98.9829 169.306 98.2022 169.013L96.104 168.227C95.7113 168.079 95.3748 167.812 95.1422 167.463L94.9858 167.229C94.2442 166.116 92.6411 166.031 91.7852 167.058Z" stroke="#262E39"/>
<path d="M120.037 163.128L116.755 166.628C115.954 167.483 116.341 168.883 117.468 169.205C118.09 169.383 118.539 169.925 118.597 170.569L118.607 170.678C118.748 172.232 120.717 172.815 121.681 171.587L123.883 168.786C124.271 168.291 124.405 167.642 124.243 167.035L123.428 163.98C123.024 162.464 121.11 161.983 120.037 163.128Z" stroke="#262E39"/>
<path d="M31.3958 181.104L26.9142 185.586C26.1332 186.367 26.1332 187.633 26.9142 188.414L28.105 189.605C28.6516 190.152 29.4641 190.334 30.1919 190.074L35.0476 188.34C35.6464 188.126 36.1079 187.64 36.2906 187.031L37.0531 184.49C37.316 183.613 36.9509 182.671 36.1665 182.2L33.839 180.803C33.0521 180.331 32.0448 180.455 31.3958 181.104Z" stroke="#262E39"/>
<path d="M26.9398 202.723L9.62144 206.369C9.21709 206.454 8.84904 206.663 8.56787 206.965L3.81143 212.088C3.07943 212.876 3.10212 214.102 3.8628 214.863L6.73499 217.735C7.21232 218.212 7.89821 218.417 8.55893 218.278L28.1575 214.176C28.6953 214.064 29.1631 213.735 29.4511 213.267L32.1721 208.845C32.6575 208.057 32.5378 207.038 31.883 206.383L28.7661 203.266C28.2882 202.788 27.6012 202.584 26.9398 202.723Z" stroke="#262E39"/>
<path d="M65 18.5L81.6498 32.7712C82.178 33.224 82.433 33.9188 82.3231 34.6057L80.761 44.3689C80.6095 45.3157 81.1513 46.2368 82.0524 46.5645L89.8182 49.3884C90.7757 49.7366 91.3184 50.749 91.0784 51.7392L87.5 66.5" stroke="#AFB8C1"/>
<path d="M57 78L65.3421 75.3656C66.0536 75.141 66.831 75.331 67.3586 75.8586L70.8012 79.3012M70.8012 79.3012L74.0858 82.5858C74.8668 83.3668 74.8668 84.6332 74.0858 85.4142L72.617 86.883C71.9622 87.5378 71.8425 88.5566 72.3279 89.3454L74.937 93.585C75.2871 94.154 75.3183 94.8634 75.0195 95.4609V95.4609C74.4858 96.5283 75.0383 97.8195 76.179 98.1705L78.7726 98.9685C79.7536 99.2703 80.3468 100.266 80.1455 101.272L79.3183 105.409C79.1328 106.336 79.6223 107.267 80.4916 107.639L81.6347 108.129C82.1827 108.364 82.5974 108.831 82.7656 109.403L84.5117 115.34C84.792 116.293 85.7296 116.896 86.7132 116.755L91.8215 116.026C91.9403 116.009 92.0573 115.981 92.1711 115.943L95.5513 114.816C96.1485 114.617 96.6172 114.149 96.8162 113.551L98.2934 109.12C98.6703 107.989 97.9806 106.782 96.8151 106.532L93.8954 105.906C92.8392 105.68 92.1535 104.656 92.3468 103.593L93.7731 95.748C93.9116 94.9861 93.5979 94.2128 92.9678 93.7627L92.4212 93.3723C91.4155 92.6539 91.2955 91.2045 92.1694 90.3306L99.9142 82.5858C100.289 82.2107 100.798 82 101.328 82H111.552C112.152 82 112.72 81.7307 113.1 81.2665L119.896 72.9608C120.714 71.9606 120.383 70.4585 119.22 69.8947L105.578 63.2801C105.202 63.0979 104.779 63.0379 104.367 63.1085L88.0063 65.9132C87.6742 65.9701 87.3618 66.1101 87.0982 66.3201L70.8012 79.3012Z" stroke="#AFB8C1"/>
<path d="M72 88L69.8597 87.1439C68.5153 86.6061 67.0627 87.6308 67.1184 89.0777L67.432 97.2308C67.4708 98.2408 68.2571 99.0631 69.2644 99.147L72.2594 99.3966C73.0189 99.4599 73.7484 99.086 74.1405 98.4325L75 97" stroke="#AFB8C1"/>
<path d="M71 99.5L69.7561 104.475C69.5959 105.117 69.7626 105.795 70.2016 106.289L72.4817 108.854C73.0825 109.53 74.0621 109.719 74.8709 109.315L79.5 107" stroke="#AFB8C1"/>
<path d="M47 117L59.3745 111.5C60.0646 111.193 60.8687 111.302 61.4532 111.78L65.1004 114.764C65.6566 115.219 66.4141 115.341 67.0848 115.083L71.2869 113.467C72.0246 113.183 72.8602 113.36 73.4191 113.919L77.1993 117.699C77.696 118.196 78.417 118.396 79.0986 118.225L86 116.5" stroke="#AFB8C1"/>
<path d="M91.5 116L93.6521 119.587C94.1446 120.408 93.9865 121.462 93.2751 122.102L85.0683 129.489C84.7024 129.818 84.4707 130.271 84.4178 130.76L82.693 146.715C82.5832 147.73 81.7259 148.5 80.7046 148.5H64.4415C63.5807 148.5 62.8164 147.949 62.5442 147.132L61.4072 143.722C61.1592 142.978 60.4992 142.447 59.7192 142.365L52.7254 141.629C51.974 141.55 51.2422 141.901 50.8337 142.536L48.1625 146.692C47.5345 147.669 46.2093 147.907 45.2802 147.21L39 142.5" stroke="#AFB8C1"/>
<path d="M48.6495 152.935L48.0343 154.575C47.7186 155.417 48.0035 156.366 48.7306 156.895L52.2447 159.451C52.7234 159.799 53.3318 159.917 53.9061 159.773L58.2169 158.696C58.7193 158.57 59.1534 158.255 59.4278 157.815L60.7486 155.702C61.1987 154.982 61.1449 154.056 60.6143 153.393L58.3384 150.548C57.8313 149.914 56.9912 149.65 56.2124 149.879L49.9578 151.718C49.3547 151.896 48.8702 152.346 48.6495 152.935Z" stroke="#AFB8C1"/>
<path d="M82.5 148.5L91 164.5" stroke="#AFB8C1"/>
<path d="M134.5 134.5L146 146.5" stroke="#AFB8C1"/>
<path d="M129 158.5L127.863 156.509C127.368 155.644 127.586 154.546 128.375 153.936L142.5 143" stroke="#AFB8C1"/>
<path d="M111 133.5L113.397 124.391C113.465 124.133 113.481 123.864 113.443 123.599L113.188 121.815C113.074 121.018 113.449 120.231 114.139 119.817L119.609 116.535C120.167 116.2 120.854 116.158 121.45 116.422L123.812 117.472C124.535 117.793 125 118.509 125 119.3V122.556C125 122.849 124.936 123.137 124.812 123.402L122.127 129.156C121.755 129.954 120.904 130.415 120.032 130.29L119.339 130.191C118.53 130.076 117.732 130.464 117.324 131.171L115.691 134" stroke="#AFB8C1"/>
<path d="M120.366 71H140.727C141.224 71 141.704 70.8146 142.072 70.4799L147 66" stroke="#AFB8C1"/>
<path d="M45.5 48L47.7639 46.4908C48.2327 46.1782 48.8117 46.0779 49.3583 46.2146L55.4755 47.7439C56.1166 47.9041 56.7954 47.7374 57.2893 47.2984L60.4317 44.5052C60.7978 44.1798 61.2706 44 61.7604 44H62.5C63.6046 44 64.5 44.8954 64.5 46V48.1241C64.5 48.884 65.116 49.5 65.8759 49.5V49.5C66.7261 49.5 67.3728 50.2634 67.233 51.102L67.1177 51.7939C67.0417 52.2501 66.8076 52.6649 66.4565 52.9658L64.7576 54.4221C64.028 55.0474 62.9569 55.0655 62.2066 54.4653L61.8496 54.1797C61.3199 53.7559 60.6114 53.6295 59.9678 53.8441L58.9031 54.199C58.3317 54.3894 57.705 54.3123 57.1969 53.9889L55.292 52.7767C54.0229 51.9691 52.3501 52.7989 52.2252 54.298L52.0715 56.1421C52.0259 56.6898 51.7569 57.1945 51.3278 57.5378L49.5 59" stroke="#AFB8C1"/>
<path d="M44.5 39L44 47.5" stroke="#AFB8C1"/>
<path d="M106.817 4.73398L105.348 10.606C105.14 11.439 104.424 12.0461 103.568 12.1146L68.3242 14.9341C67.7964 14.9763 67.3069 15.2261 66.963 15.6287L47.7343 38.1403C47.2787 38.6738 46.5768 38.9295 45.8848 38.8141L40.579 37.9298C39.2794 37.7132 38.1291 38.7906 38.2602 40.1016L38.8199 45.699C38.9221 46.7214 39.7825 47.5 40.81 47.5H43.69C44.7175 47.5 45.5779 48.2786 45.6801 49.301L46.3985 56.4853C46.4623 57.1227 46.8275 57.691 47.3809 58.0138L49.5241 59.264C50.8033 60.0103 50.7431 61.8784 49.4185 62.5408C48.4053 63.0474 48.0746 64.3332 48.7178 65.2657L56.5833 76.6708C57.0529 77.3517 56.7688 78.2925 56.0008 78.5997C55.4215 78.8314 54.7594 78.615 54.4287 78.086L52.8723 75.5957C52.6313 75.2101 52.2661 74.9182 51.837 74.768L43.5564 71.8697C42.9 71.64 42.1714 71.7677 41.6323 72.207L30.5983 81.1977C29.7236 81.9104 29.6113 83.2053 30.3503 84.058L34.9019 89.3099C35.2818 89.7482 35.8332 90 36.4133 90H38.4724C39.3743 90 40.1646 90.6036 40.4019 91.4738L46.9738 115.57C47.2644 116.636 46.6361 117.736 45.5705 118.026L45.0027 118.181C43.5978 118.564 43.0603 120.272 43.9925 121.391L46.1898 124.028C46.6846 124.621 46.793 125.447 46.4683 126.148L34.9888 150.944C34.6867 151.597 34.7582 152.362 35.1763 152.947L38.8433 158.081C39.2508 158.651 39.3299 159.393 39.0516 160.037L32.1529 175.99C31.7736 176.867 32.068 177.89 32.8556 178.432L38.9761 182.64C39.317 182.874 39.5768 183.208 39.7198 183.597L42.2662 190.508C42.6642 191.589 43.8898 192.111 44.9446 191.649L58.2348 185.835C58.7244 185.621 59.108 185.219 59.2998 184.72L61.234 179.692C61.4056 179.245 61.7315 178.875 62.1525 178.649L63.2982 178.032C64.806 177.22 66.4798 178.794 65.7622 180.349C65.3437 181.255 65.7515 182.329 66.6663 182.729L71.9164 185.026C72.5847 185.318 73.3593 185.224 73.9375 184.779L78.1933 181.505C78.9522 180.921 79.1909 179.882 78.7627 179.025L75.8461 173.192C75.3714 172.243 75.7211 171.088 76.6427 170.561L76.7517 170.499C77.7154 169.948 78.9431 170.288 79.4872 171.255L81.5586 174.938C82.2504 176.167 83.9641 176.313 84.854 175.218L88.2666 171.018C88.8996 170.239 88.6484 169.074 87.7506 168.625C86.5203 168.01 86.6207 166.222 87.9121 165.749L97.4495 162.252C98.445 161.887 99.5 162.624 99.5 163.684C99.5 164.44 100.054 165.082 100.802 165.193L111.229 166.738C112.237 166.887 113.196 166.254 113.456 165.268L115.071 159.132C115.319 158.189 116.21 157.563 117.181 157.648L131.918 158.949C132.298 158.982 132.68 158.906 133.018 158.73L143.262 153.385C143.734 153.139 144.089 152.714 144.247 152.205L155.081 117.347C155.332 116.539 155.048 115.661 154.371 115.154L154.338 115.129C153.813 114.735 153.128 114.624 152.506 114.831L151.632 115.123C150.337 115.554 149 114.59 149 113.225V70.046C149 69.6885 148.904 69.3376 148.723 69.0298L110.479 4.20285C109.57 2.662 107.25 2.99841 106.817 4.73398Z" stroke="#262E39"/>
</svg>
